<svg width="145" height="63" viewBox="0 0 145 63" fill="none" xmlns="http://www.w3.org/2000/svg">
<path d="M1.5 55V31.7273H11.5455C13.2727 31.7273 14.7841 32.0682 16.0795 32.75C17.375 33.4318 18.3826 34.3902 19.1023 35.625C19.822 36.8598 20.1818 38.303 20.1818 39.9545C20.1818 41.6212 19.8106 43.0644 19.0682 44.2841C18.3333 45.5038 17.2992 46.4432 15.9659 47.1023C14.6402 47.7614 13.0909 48.0909 11.3182 48.0909H5.31818V43.1818H10.0455C10.7879 43.1818 11.4205 43.053 11.9432 42.7955C12.4735 42.5303 12.8788 42.1553 13.1591 41.6705C13.447 41.1856 13.5909 40.6136 13.5909 39.9545C13.5909 39.2879 13.447 38.7197 13.1591 38.25C12.8788 37.7727 12.4735 37.4091 11.9432 37.1591C11.4205 36.9015 10.7879 36.7727 10.0455 36.7727H7.81818V55H1.5ZM22.5909 55V37.5455H28.6818V40.8636H28.8636C29.1818 39.6364 29.6856 38.7386 30.375 38.1705C31.072 37.6023 31.8864 37.3182 32.8182 37.3182C33.0909 37.3182 33.3598 37.3409 33.625 37.3864C33.8977 37.4242 34.1591 37.4811 34.4091 37.5568V42.9091C34.0985 42.803 33.7159 42.7235 33.2614 42.6705C32.8068 42.6174 32.4167 42.5909 32.0909 42.5909C31.4773 42.5909 30.9242 42.7311 30.4318 43.0114C29.947 43.2841 29.5644 43.6705 29.2841 44.1705C29.0038 44.6629 28.8636 45.2424 28.8636 45.9091V55H22.5909ZM43.875 55.3182C41.9811 55.3182 40.3598 54.9432 39.0114 54.1932C37.6629 53.4356 36.6288 52.3826 35.9091 51.0341C35.1894 49.678 34.8295 48.1061 34.8295 46.3182C34.8295 44.5303 35.1894 42.9621 35.9091 41.6136C36.6288 40.2576 37.6629 39.2045 39.0114 38.4545C40.3598 37.697 41.9811 37.3182 43.875 37.3182C45.7689 37.3182 47.3902 37.697 48.7386 38.4545C50.0871 39.2045 51.1212 40.2576 51.8409 41.6136C52.5606 42.9621 52.9205 44.5303 52.9205 46.3182C52.9205 48.1061 52.5606 49.678 51.8409 51.0341C51.1212 52.3826 50.0871 53.4356 48.7386 54.1932C47.3902 54.9432 45.7689 55.3182 43.875 55.3182ZM43.9205 50.6818C44.4508 50.6818 44.9091 50.5038 45.2955 50.1477C45.6818 49.7917 45.9811 49.2841 46.1932 48.625C46.4053 47.9659 46.5114 47.1818 46.5114 46.2727C46.5114 45.3561 46.4053 44.572 46.1932 43.9205C45.9811 43.2614 45.6818 42.7538 45.2955 42.3977C44.9091 42.0417 44.4508 41.8636 43.9205 41.8636C43.3598 41.8636 42.8788 42.0417 42.4773 42.3977C42.0758 42.7538 41.7689 43.2614 41.5568 43.9205C41.3447 44.572 41.2386 45.3561 41.2386 46.2727C41.2386 47.1818 41.3447 47.9659 41.5568 48.625C41.7689 49.2841 42.0758 49.7917 42.4773 50.1477C42.8788 50.5038 43.3598 50.6818 43.9205 50.6818ZM63.875 61.9091C62.125 61.9091 60.625 61.6591 59.375 61.1591C58.1326 60.6667 57.1667 59.9848 56.4773 59.1136C55.7955 58.25 55.4129 57.2576 55.3295 56.1364H61.375C61.4356 56.5076 61.5871 56.8068 61.8295 57.0341C62.072 57.2614 62.3826 57.4242 62.7614 57.5227C63.1477 57.6288 63.5795 57.6818 64.0568 57.6818C64.8674 57.6818 65.5379 57.4848 66.0682 57.0909C66.6061 56.697 66.875 55.9848 66.875 54.9545V52H66.6932C66.4659 52.5909 66.1174 53.0947 65.6477 53.5114C65.178 53.9205 64.6136 54.2348 63.9545 54.4545C63.2955 54.6667 62.572 54.7727 61.7841 54.7727C60.5417 54.7727 59.3977 54.4848 58.3523 53.9091C57.3144 53.3333 56.4811 52.4205 55.8523 51.1705C55.2311 49.9205 54.9205 48.2879 54.9205 46.2727C54.9205 44.1667 55.2462 42.4545 55.8977 41.1364C56.5568 39.8182 57.4053 38.8523 58.4432 38.2386C59.4886 37.625 60.5871 37.3182 61.7386 37.3182C62.6023 37.3182 63.3598 37.4697 64.0114 37.7727C64.6629 38.0682 65.2083 38.4659 65.6477 38.9659C66.0871 39.4583 66.4205 40 66.6477 40.5909H66.7841V37.5455H73.0568V54.9545C73.0568 56.4318 72.6742 57.6856 71.9091 58.7159C71.1515 59.7538 70.0833 60.5455 68.7045 61.0909C67.3258 61.6364 65.7159 61.9091 63.875 61.9091ZM64.1023 50.3182C64.678 50.3182 65.1705 50.1591 65.5795 49.8409C65.9962 49.5152 66.3144 49.053 66.5341 48.4545C66.7614 47.8485 66.875 47.1212 66.875 46.2727C66.875 45.4091 66.7614 44.6705 66.5341 44.0568C66.3144 43.4356 65.9962 42.9621 65.5795 42.6364C65.1705 42.303 64.678 42.1364 64.1023 42.1364C63.5265 42.1364 63.0341 42.303 62.625 42.6364C62.2235 42.9621 61.9129 43.4356 61.6932 44.0568C61.4811 44.6705 61.375 45.4091 61.375 46.2727C61.375 47.1364 61.4811 47.8712 61.6932 48.4773C61.9129 49.0758 62.2235 49.5341 62.625 49.8523C63.0341 50.1629 63.5265 50.3182 64.1023 50.3182ZM76.2472 55V37.5455H82.3381V40.8636H82.5199C82.8381 39.6364 83.3419 38.7386 84.0312 38.1705C84.7282 37.6023 85.5426 37.3182 86.4744 37.3182C86.7472 37.3182 87.0161 37.3409 87.2812 37.3864C87.554 37.4242 87.8153 37.4811 88.0653 37.5568V42.9091C87.7547 42.803 87.3722 42.7235 86.9176 42.6705C86.4631 42.6174 86.0729 42.5909 85.7472 42.5909C85.1335 42.5909 84.5805 42.7311 84.0881 43.0114C83.6032 43.2841 83.2206 43.6705 82.9403 44.1705C82.66 44.6629 82.5199 45.2424 82.5199 45.9091V55H76.2472ZM97.4858 55.3182C95.6222 55.3182 94.0161 54.9621 92.6676 54.25C91.3267 53.5303 90.2926 52.5 89.5653 51.1591C88.8456 49.8106 88.4858 48.197 88.4858 46.3182C88.4858 44.5152 88.8494 42.9394 89.5767 41.5909C90.304 40.2424 91.3305 39.1932 92.6562 38.4432C93.982 37.6932 95.5464 37.3182 97.3494 37.3182C98.6676 37.3182 99.8608 37.5227 100.929 37.9318C101.997 38.3409 102.91 38.9356 103.668 39.7159C104.425 40.4886 105.009 41.428 105.418 42.5341C105.827 43.6402 106.031 44.8864 106.031 46.2727V47.7273H90.4403V44.2727H100.259C100.251 43.7727 100.122 43.3333 99.8722 42.9545C99.6297 42.5682 99.3002 42.2689 98.8835 42.0568C98.4744 41.8371 98.0085 41.7273 97.4858 41.7273C96.9782 41.7273 96.5123 41.8371 96.0881 42.0568C95.6638 42.2689 95.3229 42.5644 95.0653 42.9432C94.8153 43.322 94.6828 43.7652 94.6676 44.2727V48C94.6676 48.5606 94.785 49.0606 95.0199 49.5C95.2547 49.9394 95.5919 50.2841 96.0312 50.5341C96.4706 50.7841 97.0009 50.9091 97.6222 50.9091C98.054 50.9091 98.4479 50.8485 98.804 50.7273C99.1676 50.6061 99.4782 50.4318 99.7358 50.2045C99.9934 49.9697 100.183 49.6894 100.304 49.3636H106.031C105.834 50.5758 105.368 51.6288 104.634 52.5227C103.899 53.4091 102.925 54.0985 101.713 54.5909C100.509 55.0758 99.0994 55.3182 97.4858 55.3182ZM124.545 43.2273H118.773C118.742 42.8712 118.617 42.5644 118.398 42.3068C118.178 42.0492 117.894 41.8523 117.545 41.7159C117.205 41.572 116.826 41.5 116.409 41.5C115.871 41.5 115.409 41.5985 115.023 41.7955C114.636 41.9924 114.447 42.2727 114.455 42.6364C114.447 42.8939 114.557 43.1326 114.784 43.3523C115.019 43.572 115.47 43.7424 116.136 43.8636L119.682 44.5C121.47 44.8258 122.799 45.375 123.67 46.1477C124.549 46.9129 124.992 47.9394 125 49.2273C124.992 50.4697 124.621 51.5492 123.886 52.4659C123.159 53.375 122.163 54.0795 120.898 54.5795C119.64 55.072 118.205 55.3182 116.591 55.3182C113.924 55.3182 111.837 54.7727 110.33 53.6818C108.83 52.5909 107.992 51.1515 107.818 49.3636H114.045C114.129 49.9167 114.402 50.3447 114.864 50.6477C115.333 50.9432 115.924 51.0909 116.636 51.0909C117.212 51.0909 117.686 50.9924 118.057 50.7955C118.436 50.5985 118.629 50.3182 118.636 49.9545C118.629 49.6212 118.462 49.3561 118.136 49.1591C117.818 48.9621 117.318 48.803 116.636 48.6818L113.545 48.1364C111.765 47.8258 110.432 47.2348 109.545 46.3636C108.659 45.4924 108.22 44.3712 108.227 43C108.22 41.7879 108.538 40.7614 109.182 39.9205C109.833 39.072 110.761 38.428 111.966 37.9886C113.178 37.5417 114.614 37.3182 116.273 37.3182C118.795 37.3182 120.784 37.8409 122.239 38.8864C123.701 39.9318 124.47 41.3788 124.545 43.2273ZM143.358 43.2273H137.585C137.555 42.8712 137.43 42.5644 137.21 42.3068C136.991 42.0492 136.706 41.8523 136.358 41.7159C136.017 41.572 135.638 41.5 135.222 41.5C134.684 41.5 134.222 41.5985 133.835 41.7955C133.449 41.9924 133.259 42.2727 133.267 42.6364C133.259 42.8939 133.369 43.1326 133.597 43.3523C133.831 43.572 134.282 43.7424 134.949 43.8636L138.494 44.5C140.282 44.8258 141.612 45.375 142.483 46.1477C143.362 46.9129 143.805 47.9394 143.812 49.2273C143.805 50.4697 143.434 51.5492 142.699 52.4659C141.972 53.375 140.975 54.0795 139.71 54.5795C138.453 55.072 137.017 55.3182 135.403 55.3182C132.737 55.3182 130.65 54.7727 129.142 53.6818C127.642 52.5909 126.805 51.1515 126.631 49.3636H132.858C132.941 49.9167 133.214 50.3447 133.676 50.6477C134.146 50.9432 134.737 51.0909 135.449 51.0909C136.025 51.0909 136.498 50.9924 136.869 50.7955C137.248 50.5985 137.441 50.3182 137.449 49.9545C137.441 49.6212 137.275 49.3561 136.949 49.1591C136.631 48.9621 136.131 48.803 135.449 48.6818L132.358 48.1364C130.578 47.8258 129.244 47.2348 128.358 46.3636C127.472 45.4924 127.032 44.3712 127.04 43C127.032 41.7879 127.35 40.7614 127.994 39.9205C128.646 39.072 129.574 38.428 130.778 37.9886C131.991 37.5417 133.426 37.3182 135.085 37.3182C137.608 37.3182 139.597 37.8409 141.051 38.8864C142.513 39.9318 143.282 41.3788 143.358 43.2273Z" fill="#F8F7FF"/>
<path d="M30.5 31V7.72727H40.5455C42.2727 7.72727 43.7841 8.04167 45.0795 8.67045C46.375 9.29924 47.3826 10.2045 48.1023 11.3864C48.822 12.5682 49.1818 13.9848 49.1818 15.6364C49.1818 17.303 48.8106 18.7083 48.0682 19.8523C47.3333 20.9962 46.2992 21.8598 44.9659 22.4432C43.6402 23.0265 42.0909 23.3182 40.3182 23.3182H34.3182V18.4091H39.0455C39.7879 18.4091 40.4205 18.3182 40.9432 18.1364C41.4735 17.947 41.8788 17.6477 42.1591 17.2386C42.447 16.8295 42.5909 16.2955 42.5909 15.6364C42.5909 14.9697 42.447 14.428 42.1591 14.0114C41.8788 13.5871 41.4735 13.2765 40.9432 13.0795C40.4205 12.875 39.7879 12.7727 39.0455 12.7727H36.8182V31H30.5ZM44.1364 20.3182L49.9545 31H43.0909L37.4091 20.3182H44.1364ZM63.2841 23.3636V13.5455H69.5568V31H63.6023V27.6818H63.4205C63.0417 28.7955 62.3788 29.6667 61.4318 30.2955C60.4848 30.9167 59.3598 31.2273 58.0568 31.2273C56.8371 31.2273 55.7689 30.947 54.8523 30.3864C53.9432 29.8258 53.2348 29.053 52.7273 28.0682C52.2273 27.0833 51.9735 25.9545 51.9659 24.6818V13.5455H58.2386V23.3636C58.2462 24.2273 58.4659 24.9053 58.8977 25.3977C59.3371 25.8902 59.9508 26.1364 60.7386 26.1364C61.2614 26.1364 61.7121 26.0265 62.0909 25.8068C62.4773 25.5795 62.7727 25.2614 62.9773 24.8523C63.1894 24.4356 63.2917 23.9394 63.2841 23.3636ZM79.0199 21.1818V31H72.7472V13.5455H78.7017V16.8636H78.8835C79.2623 15.7576 79.929 14.8902 80.8835 14.2614C81.8456 13.6326 82.9669 13.3182 84.2472 13.3182C85.482 13.3182 86.554 13.6023 87.4631 14.1705C88.3797 14.7311 89.0881 15.5038 89.5881 16.4886C90.0956 17.4735 90.3456 18.5985 90.3381 19.8636V31H84.0653V21.1818C84.0729 20.3182 83.8532 19.6402 83.4062 19.1477C82.9669 18.6553 82.3532 18.4091 81.5653 18.4091C81.0502 18.4091 80.5994 18.5227 80.2131 18.75C79.8343 18.9697 79.5426 19.2879 79.3381 19.7045C79.1335 20.1136 79.0275 20.6061 79.0199 21.1818Z" fill="#0CCE6B"/>
<path d="M100.729 13.4877C100.803 13.3579 100.906 13.2466 101.029 13.1622C101.151 13.0778 101.291 13.0223 101.438 13C101.844 13 102.282 13.3231 102.751 13.6711C102.868 13.7576 102.985 13.8433 103.105 13.9284C103.641 14.3044 104.256 14.6465 104.783 14.7542C105.604 14.9237 106.547 14.6853 107.303 14.3453C108.164 13.9454 108.661 14.8658 109.046 15.5779C109.118 15.7105 109.187 15.8372 109.252 15.9459C109.539 16.4176 109.9 16.98 110.311 17.5474C110.474 17.5322 110.639 17.5585 110.791 17.6237C110.942 17.689 111.075 17.7913 111.177 17.9213C111.279 18.0513 111.347 18.2049 111.376 18.3683C111.404 18.5316 111.392 18.6995 111.34 18.8568C111.644 19.2338 111.934 19.5951 112.207 19.9408C112.397 19.8868 112.599 19.8912 112.786 19.9535C112.973 20.0158 113.138 20.1331 113.259 20.2903C113.379 20.4476 113.451 20.6376 113.463 20.836C113.476 21.0344 113.43 21.2321 113.33 21.4038C114.391 22.8328 115.121 23.9946 115.543 25.0288C115.899 25.9063 116.051 26.7271 115.985 27.5638C115.919 28.3885 115.646 29.1564 115.266 29.9332C114.749 30.9853 113.483 31.2735 112.556 30.734L97.9894 22.2574C97.5349 21.9929 97.2032 21.5573 97.0674 21.0464C96.9316 20.5354 97.0027 19.991 97.2651 19.533L97.7598 18.6693L103.758 22.1597C103.985 22.2899 104.254 22.3242 104.506 22.2552C104.758 22.1862 104.973 22.0195 105.104 21.7914C105.234 21.5633 105.27 21.2925 105.203 21.0379C105.136 20.7833 104.972 20.5656 104.747 20.4325L98.7492 16.9421L100.729 13.4877Z" fill="white"/>
</svg>
