<svg width="91" height="38" viewBox="0 0 91 38" fill="none" xmlns="http://www.w3.org/2000/svg">
<path d="M0.9375 33V18.4545H7.21591C8.29545 18.4545 9.24006 18.6676 10.0497 19.0938C10.8594 19.5199 11.4891 20.1188 11.9389 20.8906C12.3887 21.6624 12.6136 22.5644 12.6136 23.5966C12.6136 24.6383 12.3816 25.5402 11.9176 26.3026C11.4583 27.0649 10.812 27.652 9.97869 28.0639C9.15009 28.4759 8.18182 28.6818 7.07386 28.6818H3.32386V25.6136H6.27841C6.74242 25.6136 7.13778 25.5331 7.46449 25.3722C7.79593 25.2064 8.04924 24.9721 8.22443 24.669C8.40436 24.366 8.49432 24.0085 8.49432 23.5966C8.49432 23.1799 8.40436 22.8248 8.22443 22.5312C8.04924 22.233 7.79593 22.0057 7.46449 21.8494C7.13778 21.6884 6.74242 21.608 6.27841 21.608H4.88636V33H0.9375ZM14.1193 33V22.0909H17.9261V24.1648H18.0398C18.2386 23.3977 18.5535 22.8366 18.9844 22.4815C19.42 22.1264 19.929 21.9489 20.5114 21.9489C20.6818 21.9489 20.8499 21.9631 21.0156 21.9915C21.1861 22.0152 21.3494 22.0507 21.5057 22.098V25.4432C21.3116 25.3769 21.0724 25.3272 20.7884 25.294C20.5043 25.2609 20.2604 25.2443 20.0568 25.2443C19.6733 25.2443 19.3277 25.3319 19.0199 25.5071C18.7169 25.6776 18.4777 25.919 18.3026 26.2315C18.1274 26.5393 18.0398 26.9015 18.0398 27.3182V33H14.1193ZM27.4219 33.1989C26.2382 33.1989 25.2249 32.9645 24.3821 32.4957C23.5393 32.0223 22.893 31.3641 22.4432 30.5213C21.9934 29.6738 21.7685 28.6913 21.7685 27.5739C21.7685 26.4564 21.9934 25.4763 22.4432 24.6335C22.893 23.786 23.5393 23.1278 24.3821 22.6591C25.2249 22.1856 26.2382 21.9489 27.4219 21.9489C28.6056 21.9489 29.6188 22.1856 30.4616 22.6591C31.3045 23.1278 31.9508 23.786 32.4006 24.6335C32.8504 25.4763 33.0753 26.4564 33.0753 27.5739C33.0753 28.6913 32.8504 29.6738 32.4006 30.5213C31.9508 31.3641 31.3045 32.0223 30.4616 32.4957C29.6188 32.9645 28.6056 33.1989 27.4219 33.1989ZM27.4503 30.3011C27.7817 30.3011 28.0682 30.1899 28.3097 29.9673C28.5511 29.7448 28.7382 29.4276 28.8707 29.0156C29.0033 28.6037 29.0696 28.1136 29.0696 27.5455C29.0696 26.9725 29.0033 26.4825 28.8707 26.0753C28.7382 25.6634 28.5511 25.3461 28.3097 25.1236C28.0682 24.901 27.7817 24.7898 27.4503 24.7898C27.0999 24.7898 26.7992 24.901 26.5483 25.1236C26.2973 25.3461 26.1056 25.6634 25.973 26.0753C25.8404 26.4825 25.7741 26.9725 25.7741 27.5455C25.7741 28.1136 25.8404 28.6037 25.973 29.0156C26.1056 29.4276 26.2973 29.7448 26.5483 29.9673C26.7992 30.1899 27.0999 30.3011 27.4503 30.3011ZM39.9219 37.3182C38.8281 37.3182 37.8906 37.1619 37.1094 36.8494C36.3329 36.5417 35.7292 36.1155 35.2983 35.571C34.8722 35.0313 34.633 34.411 34.581 33.7102H38.3594C38.3973 33.9422 38.492 34.1293 38.6435 34.2713C38.795 34.4134 38.9891 34.5152 39.2259 34.5767C39.4673 34.643 39.7372 34.6761 40.0355 34.6761C40.5421 34.6761 40.9612 34.553 41.2926 34.3068C41.6288 34.0606 41.7969 33.6155 41.7969 32.9716V31.125H41.6832C41.5412 31.4943 41.3234 31.8092 41.0298 32.0696C40.7363 32.3253 40.3835 32.5218 39.9716 32.6591C39.5597 32.7917 39.1075 32.858 38.6151 32.858C37.8385 32.858 37.1236 32.678 36.4702 32.3182C35.8215 31.9583 35.3007 31.3878 34.9077 30.6065C34.5194 29.8253 34.3253 28.8049 34.3253 27.5455C34.3253 26.2292 34.5289 25.1591 34.9361 24.3352C35.348 23.5114 35.8783 22.9077 36.527 22.5241C37.1804 22.1406 37.867 21.9489 38.5866 21.9489C39.1264 21.9489 39.5999 22.0436 40.0071 22.233C40.4143 22.4176 40.7552 22.6662 41.0298 22.9787C41.3045 23.2865 41.5128 23.625 41.6548 23.9943H41.7401V22.0909H45.6605V32.9716C45.6605 33.8949 45.4214 34.6785 44.9432 35.3224C44.4697 35.9711 43.8021 36.4659 42.9403 36.8068C42.0786 37.1477 41.0724 37.3182 39.9219 37.3182ZM40.0639 30.0739C40.4238 30.0739 40.7315 29.9744 40.9872 29.7756C41.2476 29.572 41.4465 29.2831 41.5838 28.9091C41.7259 28.5303 41.7969 28.0758 41.7969 27.5455C41.7969 27.0057 41.7259 26.544 41.5838 26.1605C41.4465 25.7723 41.2476 25.4763 40.9872 25.2727C40.7315 25.0644 40.4238 24.9602 40.0639 24.9602C39.7041 24.9602 39.3963 25.0644 39.1406 25.2727C38.8897 25.4763 38.6955 25.7723 38.5582 26.1605C38.4257 26.544 38.3594 27.0057 38.3594 27.5455C38.3594 28.0852 38.4257 28.5445 38.5582 28.9233C38.6955 29.2973 38.8897 29.5838 39.1406 29.7827C39.3963 29.9768 39.7041 30.0739 40.0639 30.0739ZM47.6545 33V22.0909H51.4613V24.1648H51.5749C51.7738 23.3977 52.0887 22.8366 52.5195 22.4815C52.9551 22.1264 53.4641 21.9489 54.0465 21.9489C54.217 21.9489 54.3851 21.9631 54.5508 21.9915C54.7212 22.0152 54.8846 22.0507 55.0408 22.098V25.4432C54.8467 25.3769 54.6076 25.3272 54.3235 25.294C54.0394 25.2609 53.7956 25.2443 53.592 25.2443C53.2085 25.2443 52.8628 25.3319 52.555 25.5071C52.252 25.6776 52.0129 25.919 51.8377 26.2315C51.6625 26.5393 51.5749 26.9015 51.5749 27.3182V33H47.6545ZM60.9286 33.1989C59.7638 33.1989 58.7601 32.9763 57.9173 32.5312C57.0792 32.0814 56.4329 31.4375 55.9783 30.5994C55.5285 29.7566 55.3036 28.7481 55.3036 27.5739C55.3036 26.447 55.5309 25.4621 55.9854 24.6193C56.44 23.7765 57.0816 23.1207 57.9102 22.652C58.7388 22.1832 59.7165 21.9489 60.8434 21.9489C61.6673 21.9489 62.413 22.0767 63.0806 22.3324C63.7482 22.5881 64.3188 22.9598 64.7923 23.4474C65.2657 23.9304 65.6303 24.5175 65.886 25.2088C66.1417 25.9001 66.2695 26.679 66.2695 27.5455V28.4545H56.5252V26.2955H62.6616C62.6568 25.983 62.5763 25.7083 62.4201 25.4716C62.2686 25.2301 62.0626 25.0431 61.8022 24.9105C61.5465 24.7732 61.2553 24.7045 60.9286 24.7045C60.6114 24.7045 60.3202 24.7732 60.055 24.9105C59.7899 25.0431 59.5768 25.2277 59.4158 25.4645C59.2596 25.7012 59.1767 25.9782 59.1673 26.2955V28.625C59.1673 28.9754 59.2406 29.2879 59.3874 29.5625C59.5342 29.8371 59.7449 30.0526 60.0195 30.2088C60.2942 30.3651 60.6256 30.4432 61.0138 30.4432C61.2837 30.4432 61.5299 30.4053 61.7525 30.3295C61.9798 30.2538 62.1739 30.1449 62.3349 30.0028C62.4959 29.8561 62.6142 29.6809 62.69 29.4773H66.2695C66.1464 30.2348 65.8552 30.893 65.396 31.4517C64.9367 32.0057 64.3282 32.4366 63.5707 32.7443C62.8178 33.0473 61.9371 33.1989 60.9286 33.1989ZM77.8409 25.642H74.233C74.214 25.4195 74.1359 25.2277 73.9986 25.0668C73.8613 24.9058 73.6837 24.7827 73.4659 24.6974C73.2528 24.6075 73.0161 24.5625 72.7557 24.5625C72.4195 24.5625 72.1307 24.6241 71.8892 24.7472C71.6477 24.8703 71.5294 25.0455 71.5341 25.2727C71.5294 25.4337 71.598 25.5829 71.7401 25.7202C71.8868 25.8575 72.1686 25.964 72.5852 26.0398L74.8011 26.4375C75.9186 26.6411 76.7495 26.9844 77.294 27.4673C77.8433 27.9455 78.1203 28.5871 78.125 29.392C78.1203 30.1686 77.8883 30.8433 77.429 31.4162C76.9744 31.9844 76.3518 32.4247 75.5611 32.7372C74.7751 33.045 73.8778 33.1989 72.8693 33.1989C71.2027 33.1989 69.8982 32.858 68.956 32.1761C68.0185 31.4943 67.4953 30.5947 67.3864 29.4773H71.2784C71.3305 29.8229 71.5009 30.0904 71.7898 30.2798C72.0833 30.4645 72.4527 30.5568 72.8977 30.5568C73.2576 30.5568 73.5535 30.4953 73.7855 30.3722C74.0223 30.2491 74.143 30.0739 74.1477 29.8466C74.143 29.6383 74.0388 29.4725 73.8352 29.3494C73.6364 29.2263 73.3239 29.1269 72.8977 29.0511L70.9659 28.7102C69.8532 28.5161 69.0199 28.1468 68.4659 27.6023C67.9119 27.0578 67.6373 26.357 67.642 25.5C67.6373 24.7424 67.8362 24.1009 68.2386 23.5753C68.6458 23.045 69.2259 22.6425 69.9787 22.3679C70.7363 22.0885 71.6335 21.9489 72.6705 21.9489C74.2472 21.9489 75.4901 22.2756 76.3991 22.929C77.313 23.5824 77.7936 24.4867 77.8409 25.642ZM89.5987 25.642H85.9908C85.9718 25.4195 85.8937 25.2277 85.7564 25.0668C85.6191 24.9058 85.4415 24.7827 85.2237 24.6974C85.0107 24.6075 84.7739 24.5625 84.5135 24.5625C84.1773 24.5625 83.8885 24.6241 83.647 24.7472C83.4055 24.8703 83.2872 25.0455 83.2919 25.2727C83.2872 25.4337 83.3558 25.5829 83.4979 25.7202C83.6446 25.8575 83.9264 25.964 84.343 26.0398L86.5589 26.4375C87.6764 26.6411 88.5073 26.9844 89.0518 27.4673C89.6011 27.9455 89.8781 28.5871 89.8828 29.392C89.8781 30.1686 89.6461 30.8433 89.1868 31.4162C88.7322 31.9844 88.1096 32.4247 87.3189 32.7372C86.5329 33.045 85.6357 33.1989 84.6271 33.1989C82.9605 33.1989 81.656 32.858 80.7138 32.1761C79.7763 31.4943 79.2531 30.5947 79.1442 29.4773H83.0362C83.0883 29.8229 83.2588 30.0904 83.5476 30.2798C83.8411 30.4645 84.2105 30.5568 84.6555 30.5568C85.0154 30.5568 85.3113 30.4953 85.5433 30.3722C85.7801 30.2491 85.9008 30.0739 85.9055 29.8466C85.9008 29.6383 85.7966 29.4725 85.593 29.3494C85.3942 29.2263 85.0817 29.1269 84.6555 29.0511L82.7237 28.7102C81.611 28.5161 80.7777 28.1468 80.2237 27.6023C79.6697 27.0578 79.3951 26.357 79.3999 25.5C79.3951 24.7424 79.594 24.1009 79.9964 23.5753C80.4036 23.045 80.9837 22.6425 81.7365 22.3679C82.4941 22.0885 83.3913 21.9489 84.4283 21.9489C86.005 21.9489 87.2479 22.2756 88.157 22.929C89.0708 23.5824 89.5514 24.4867 89.5987 25.642Z" fill="#F8F7FF"/>
<path d="M17.9375 19V4.45455H24.2159C25.2955 4.45455 26.2401 4.65104 27.0497 5.04403C27.8594 5.43703 28.4891 6.00284 28.9389 6.74148C29.3887 7.48011 29.6136 8.36553 29.6136 9.39773C29.6136 10.4394 29.3816 11.3177 28.9176 12.0327C28.4583 12.7476 27.812 13.2874 26.9787 13.652C26.1501 14.0166 25.1818 14.1989 24.0739 14.1989H20.3239V11.1307H23.2784C23.7424 11.1307 24.1378 11.0739 24.4645 10.9602C24.7959 10.8419 25.0492 10.6548 25.2244 10.3991C25.4044 10.1435 25.4943 9.80966 25.4943 9.39773C25.4943 8.98106 25.4044 8.64252 25.2244 8.3821C25.0492 8.11695 24.7959 7.92282 24.4645 7.79972C24.1378 7.67187 23.7424 7.60795 23.2784 7.60795H21.8864V19H17.9375ZM26.4602 12.3239L30.0966 19H25.8068L22.2557 12.3239H26.4602ZM38.4276 14.2273V8.09091H42.348V19H38.6264V16.9261H38.5128C38.276 17.6222 37.8617 18.1667 37.2699 18.5597C36.678 18.9479 35.9749 19.142 35.1605 19.142C34.3982 19.142 33.7306 18.9669 33.1577 18.6165C32.5895 18.2661 32.1468 17.7831 31.8295 17.1676C31.517 16.5521 31.3584 15.8466 31.3537 15.0511V8.09091H35.2741V14.2273C35.2789 14.767 35.4162 15.1908 35.6861 15.4986C35.9607 15.8063 36.3442 15.9602 36.8366 15.9602C37.1634 15.9602 37.4451 15.8916 37.6818 15.7543C37.9233 15.6122 38.108 15.4134 38.2358 15.1577C38.3684 14.8973 38.4323 14.5871 38.4276 14.2273ZM48.2624 12.8636V19H44.342V8.09091H48.0636V10.1648H48.1772C48.4139 9.47348 48.8306 8.93134 49.4272 8.53835C50.0285 8.14536 50.7293 7.94886 51.5295 7.94886C52.3013 7.94886 52.9712 8.12642 53.5394 8.48153C54.1123 8.83191 54.555 9.31487 54.8675 9.9304C55.1848 10.5459 55.341 11.2491 55.3363 12.0398V19H51.4158V12.8636C51.4206 12.3239 51.2833 11.9001 51.0039 11.5923C50.7293 11.2846 50.3458 11.1307 49.8533 11.1307C49.5314 11.1307 49.2496 11.2017 49.0082 11.3438C48.7714 11.4811 48.5891 11.6799 48.4613 11.9403C48.3335 12.196 48.2672 12.5038 48.2624 12.8636Z" fill="#0CCE6B"/>
<path d="M63.7711 6.35954C63.8264 6.26386 63.9024 6.18185 63.9937 6.1196C64.085 6.05735 64.1891 6.01648 64.2983 6C64.5998 6 64.9255 6.23822 65.274 6.49483C65.3603 6.55855 65.4478 6.62178 65.5365 6.68453C65.935 6.96172 66.3923 7.21391 66.7835 7.29332C67.3938 7.41832 68.0945 7.24259 68.6562 6.99187C69.2959 6.69703 69.6657 7.37567 69.9517 7.90065C70.0054 7.99844 70.0561 8.09181 70.1047 8.17196C70.3179 8.51973 70.5863 8.93442 70.8914 9.35278C71.0132 9.34158 71.1358 9.36092 71.2482 9.40904C71.3606 9.45717 71.4592 9.53258 71.5351 9.62843C71.6111 9.72427 71.6619 9.83754 71.683 9.95798C71.7041 10.0784 71.6949 10.2022 71.6561 10.3182C71.8825 10.5961 72.0975 10.8625 72.3009 11.1174C72.442 11.0776 72.5917 11.0808 72.7309 11.1268C72.8701 11.1727 72.9925 11.2592 73.0822 11.3751C73.1719 11.491 73.2249 11.6311 73.2343 11.7774C73.2438 11.9237 73.2094 12.0695 73.1354 12.196C73.9236 13.2497 74.4662 14.1062 74.7795 14.8687C75.0441 15.5157 75.1574 16.1208 75.1081 16.7377C75.0589 17.3458 74.8567 17.9119 74.5736 18.4847C74.1898 19.2604 73.2486 19.4729 72.5597 19.0751L61.7352 12.8254C61.3975 12.6304 61.151 12.3092 61.0501 11.9325C60.9492 11.5558 61.002 11.1544 61.197 10.8167L61.5646 10.18L66.0218 12.7534C66.1906 12.8493 66.3905 12.8746 66.5778 12.8238C66.7652 12.7729 66.9249 12.65 67.0219 12.4818C67.119 12.3137 67.1456 12.114 67.096 11.9263C67.0464 11.7385 66.9245 11.5781 66.757 11.4799L62.2999 8.90648L63.7711 6.35954Z" fill="white"/>
</svg>
